<svg xmlns="http://www.w3.org/2000/svg" version="1.1" xmlns:xlink="http://www.w3.org/1999/xlink" width="1000" height="1000"><style>
    #light-icon {
      display: inline;
    }
    #dark-icon {
      display: none;
    }

    @media (prefers-color-scheme: dark) {
      #light-icon {
        display: none;
      }
      #dark-icon {
        display: inline;
      }
    }
  </style><g id="light-icon"><svg xmlns="http://www.w3.org/2000/svg" version="1.1" xmlns:xlink="http://www.w3.org/1999/xlink" width="1000" height="1000"><g><g transform="matrix(0.9765625,0,0,0.9765625,0,0)"><svg xmlns="http://www.w3.org/2000/svg" version="1.1" xmlns:xlink="http://www.w3.org/1999/xlink" width="1024" height="1024"><svg xmlns="http://www.w3.org/2000/svg" xmlns:xlink="http://www.w3.org/1999/xlink" width="1024" zoomAndPan="magnify" viewBox="0 0 768 767.999994" height="1024" preserveAspectRatio="xMidYMid meet" version="1.0"><defs><clipPath id="06dd314c53"><path d="M 90 0 L 678 0 C 701.871094 0 724.761719 9.480469 741.640625 26.359375 C 758.519531 43.238281 768 66.128906 768 90 L 768 678 C 768 727.707031 727.707031 768 678 768 L 90 768 C 40.292969 768 0 727.707031 0 678 L 0 90 C 0 40.292969 40.292969 0 90 0 Z M 90 0 " clip-rule="nonzero"></path></clipPath><clipPath id="f5270b928d"><path d="M 0 0 L 768 0 L 768 768 L 0 768 Z M 0 0 " clip-rule="nonzero"></path></clipPath><clipPath id="f0179cf185"><path d="M 90 0 L 678 0 C 701.871094 0 724.761719 9.480469 741.640625 26.359375 C 758.519531 43.238281 768 66.128906 768 90 L 768 678 C 768 727.707031 727.707031 768 678 768 L 90 768 C 40.292969 768 0 727.707031 0 678 L 0 90 C 0 40.292969 40.292969 0 90 0 Z M 90 0 " clip-rule="nonzero"></path></clipPath><clipPath id="e08952dbba"><rect x="0" width="768" y="0" height="768"></rect></clipPath><clipPath id="f2df9a6403"><path d="M 146.722656 146.722656 L 621.472656 146.722656 L 621.472656 621.472656 L 146.722656 621.472656 Z M 146.722656 146.722656 " clip-rule="nonzero"></path></clipPath></defs><g clip-path="url(#06dd314c53)"><g transform="matrix(1, 0, 0, 1, 0, -0.000000000000057351)"><g clip-path="url(#e08952dbba)"><g clip-path="url(#f5270b928d)"><g clip-path="url(#f0179cf185)"><rect x="-168.96" width="1105.92" fill="#898dc3" height="1105.919991" y="-168.959999" fill-opacity="1"></rect></g></g></g></g></g><g clip-path="url(#f2df9a6403)"><path fill="#ffffff" d="M 503.804688 535.328125 C 470.980469 561.386719 429.34375 576.964844 384.097656 576.964844 C 338.847656 576.964844 297.214844 561.386719 264.386719 535.328125 L 338.9375 460.777344 C 352.199219 468.566406 367.683594 473.113281 384.1875 473.113281 C 400.695312 473.113281 416.179688 468.660156 429.4375 460.777344 L 503.988281 535.328125 Z M 566.949219 535.515625 C 600.980469 494.34375 621.472656 441.679688 621.472656 384.097656 C 621.472656 326.515625 600.980469 273.847656 566.949219 232.675781 L 577.890625 221.828125 C 586.605469 213.113281 586.605469 199.019531 577.890625 190.394531 C 569.175781 181.769531 555.082031 181.679688 546.457031 190.394531 L 535.515625 201.242188 C 494.34375 167.214844 441.679688 146.722656 384.097656 146.722656 C 326.515625 146.722656 273.847656 167.214844 232.675781 201.242188 L 221.828125 190.300781 C 213.113281 181.585938 199.019531 181.585938 190.394531 190.300781 C 181.769531 199.019531 181.679688 213.113281 190.300781 221.828125 L 201.242188 232.675781 C 167.214844 273.847656 146.722656 326.515625 146.722656 384.097656 C 146.722656 441.679688 167.214844 494.34375 201.242188 535.515625 L 190.300781 546.363281 C 181.585938 555.082031 181.585938 569.175781 190.300781 577.796875 C 199.019531 586.421875 213.113281 586.515625 221.734375 577.796875 L 232.675781 566.855469 C 273.847656 600.980469 326.515625 621.472656 384.097656 621.472656 C 441.679688 621.472656 494.34375 600.980469 535.515625 566.949219 L 546.363281 577.890625 C 555.082031 586.605469 569.175781 586.605469 577.796875 577.890625 C 586.421875 569.175781 586.515625 555.082031 577.796875 546.457031 L 566.855469 535.515625 Z M 535.328125 503.894531 L 460.777344 429.34375 C 468.566406 416.085938 473.113281 400.601562 473.113281 384.097656 C 473.113281 367.589844 468.660156 352.105469 460.777344 338.847656 L 535.328125 264.296875 C 561.386719 297.214844 576.964844 338.847656 576.964844 384.097656 C 576.964844 429.34375 561.386719 470.980469 535.328125 503.804688 Z M 503.804688 232.863281 L 429.253906 307.414062 C 415.992188 299.625 400.507812 295.082031 384.003906 295.082031 C 367.5 295.082031 352.011719 299.53125 338.753906 307.414062 L 264.386719 232.863281 C 297.214844 206.804688 338.847656 191.230469 384.097656 191.230469 C 429.34375 191.230469 470.980469 206.804688 503.804688 232.863281 Z M 307.414062 429.34375 L 232.863281 503.804688 C 206.804688 470.980469 191.230469 429.34375 191.230469 384.097656 C 191.230469 338.847656 206.804688 297.214844 232.863281 264.386719 L 307.414062 338.9375 C 299.625 352.199219 295.082031 367.683594 295.082031 384.1875 C 295.082031 400.695312 299.53125 416.179688 307.414062 429.4375 Z M 339.589844 384.097656 C 339.589844 382.636719 339.660156 381.183594 339.800781 379.734375 C 339.945312 378.28125 340.160156 376.84375 340.441406 375.414062 C 340.726562 373.984375 341.082031 372.570312 341.503906 371.175781 C 341.929688 369.78125 342.417969 368.410156 342.976562 367.0625 C 343.535156 365.71875 344.15625 364.402344 344.84375 363.113281 C 345.53125 361.828125 346.277344 360.582031 347.089844 359.367188 C 347.898438 358.15625 348.765625 356.988281 349.691406 355.859375 C 350.617188 354.734375 351.59375 353.65625 352.625 352.625 C 353.65625 351.59375 354.734375 350.617188 355.859375 349.691406 C 356.988281 348.765625 358.15625 347.898438 359.367188 347.089844 C 360.582031 346.277344 361.828125 345.53125 363.113281 344.84375 C 364.402344 344.15625 365.71875 343.535156 367.0625 342.976562 C 368.410156 342.417969 369.78125 341.929688 371.175781 341.503906 C 372.570312 341.082031 373.984375 340.726562 375.414062 340.445312 C 376.84375 340.160156 378.28125 339.945312 379.734375 339.800781 C 381.183594 339.660156 382.636719 339.589844 384.097656 339.589844 C 385.554688 339.589844 387.007812 339.660156 388.457031 339.800781 C 389.910156 339.945312 391.347656 340.160156 392.777344 340.445312 C 394.207031 340.726562 395.621094 341.082031 397.015625 341.503906 C 398.410156 341.929688 399.78125 342.417969 401.128906 342.976562 C 402.476562 343.535156 403.792969 344.15625 405.078125 344.84375 C 406.363281 345.53125 407.609375 346.277344 408.824219 347.089844 C 410.035156 347.898438 411.203125 348.765625 412.332031 349.691406 C 413.457031 350.617188 414.535156 351.59375 415.566406 352.625 C 416.597656 353.65625 417.578125 354.734375 418.5 355.859375 C 419.425781 356.988281 420.292969 358.15625 421.101562 359.367188 C 421.914062 360.582031 422.660156 361.828125 423.347656 363.113281 C 424.035156 364.402344 424.65625 365.71875 425.214844 367.0625 C 425.773438 368.410156 426.265625 369.78125 426.6875 371.175781 C 427.109375 372.570312 427.464844 373.984375 427.75 375.414062 C 428.03125 376.84375 428.246094 378.28125 428.390625 379.734375 C 428.53125 381.183594 428.605469 382.636719 428.605469 384.097656 C 428.605469 385.554688 428.53125 387.007812 428.390625 388.457031 C 428.246094 389.910156 428.03125 391.347656 427.75 392.777344 C 427.464844 394.207031 427.109375 395.621094 426.6875 397.015625 C 426.265625 398.410156 425.773438 399.78125 425.214844 401.128906 C 424.65625 402.476562 424.035156 403.792969 423.347656 405.078125 C 422.660156 406.363281 421.914062 407.609375 421.101562 408.824219 C 420.292969 410.035156 419.425781 411.203125 418.5 412.332031 C 417.578125 413.457031 416.597656 414.535156 415.566406 415.566406 C 414.535156 416.597656 413.457031 417.578125 412.332031 418.5 C 411.203125 419.425781 410.035156 420.292969 408.824219 421.101562 C 407.609375 421.914062 406.363281 422.660156 405.078125 423.347656 C 403.792969 424.035156 402.476562 424.65625 401.128906 425.214844 C 399.78125 425.773438 398.410156 426.265625 397.015625 426.6875 C 395.621094 427.109375 394.207031 427.464844 392.777344 427.75 C 391.347656 428.03125 389.910156 428.246094 388.457031 428.390625 C 387.007812 428.53125 385.554688 428.605469 384.097656 428.605469 C 382.636719 428.605469 381.183594 428.53125 379.734375 428.390625 C 378.28125 428.246094 376.84375 428.03125 375.414062 427.75 C 373.984375 427.464844 372.570312 427.109375 371.175781 426.6875 C 369.78125 426.265625 368.410156 425.773438 367.0625 425.214844 C 365.71875 424.65625 364.402344 424.035156 363.113281 423.347656 C 361.828125 422.660156 360.582031 421.914062 359.367188 421.101562 C 358.15625 420.292969 356.988281 419.425781 355.859375 418.5 C 354.734375 417.578125 353.65625 416.597656 352.625 415.566406 C 351.59375 414.535156 350.617188 413.457031 349.691406 412.332031 C 348.765625 411.203125 347.898438 410.035156 347.089844 408.824219 C 346.277344 407.609375 345.53125 406.363281 344.84375 405.078125 C 344.15625 403.792969 343.535156 402.476562 342.976562 401.128906 C 342.417969 399.78125 341.929688 398.410156 341.503906 397.015625 C 341.082031 395.621094 340.726562 394.207031 340.441406 392.777344 C 340.160156 391.347656 339.945312 389.910156 339.800781 388.457031 C 339.660156 387.007812 339.589844 385.554688 339.589844 384.097656 Z M 339.589844 384.097656 " fill-opacity="1" fill-rule="nonzero"></path></g></svg></svg></g></g></svg></g><g id="dark-icon"><svg xmlns="http://www.w3.org/2000/svg" version="1.1" xmlns:xlink="http://www.w3.org/1999/xlink" width="1000" height="1000"><g><g transform="matrix(0.9765625,0,0,0.9765625,0,0)"><svg xmlns="http://www.w3.org/2000/svg" version="1.1" xmlns:xlink="http://www.w3.org/1999/xlink" width="1024" height="1024"><svg xmlns="http://www.w3.org/2000/svg" xmlns:xlink="http://www.w3.org/1999/xlink" width="1024" zoomAndPan="magnify" viewBox="0 0 768 767.999994" height="1024" preserveAspectRatio="xMidYMid meet" version="1.0"><defs><clipPath id="e00c0ec06e"><path d="M 90 0 L 678 0 C 701.871094 0 724.761719 9.480469 741.640625 26.359375 C 758.519531 43.238281 768 66.128906 768 90 L 768 678 C 768 727.707031 727.707031 768 678 768 L 90 768 C 40.292969 768 0 727.707031 0 678 L 0 90 C 0 40.292969 40.292969 0 90 0 Z M 90 0 " clip-rule="nonzero"></path></clipPath><clipPath id="f906d929e9"><path d="M 0 0 L 768 0 L 768 768 L 0 768 Z M 0 0 " clip-rule="nonzero"></path></clipPath><clipPath id="948d441ca1"><path d="M 90 0 L 678 0 C 701.871094 0 724.761719 9.480469 741.640625 26.359375 C 758.519531 43.238281 768 66.128906 768 90 L 768 678 C 768 727.707031 727.707031 768 678 768 L 90 768 C 40.292969 768 0 727.707031 0 678 L 0 90 C 0 40.292969 40.292969 0 90 0 Z M 90 0 " clip-rule="nonzero"></path></clipPath><clipPath id="4143fc405a"><rect x="0" width="768" y="0" height="768"></rect></clipPath><clipPath id="afa37a46d5"><path d="M 146.738281 146.738281 L 621.488281 146.738281 L 621.488281 621.488281 L 146.738281 621.488281 Z M 146.738281 146.738281 " clip-rule="nonzero"></path></clipPath></defs><g clip-path="url(#e00c0ec06e)"><g transform="matrix(1, 0, 0, 1, 0, -0.000000000000057351)"><g clip-path="url(#4143fc405a)"><g clip-path="url(#f906d929e9)"><g clip-path="url(#948d441ca1)"><rect x="-168.96" width="1105.92" fill="#9a9ed4" height="1105.919991" y="-168.959999" fill-opacity="1"></rect></g></g></g></g></g><g clip-path="url(#afa37a46d5)"><path fill="#18181f" d="M 503.820312 535.347656 C 470.996094 561.402344 429.363281 576.980469 384.113281 576.980469 C 338.863281 576.980469 297.230469 561.402344 264.40625 535.347656 L 338.957031 460.796875 C 352.214844 468.585938 367.699219 473.128906 384.207031 473.128906 C 400.710938 473.128906 416.195312 468.675781 429.453125 460.796875 L 504.003906 535.347656 Z M 566.964844 535.53125 C 600.996094 494.363281 621.488281 441.695312 621.488281 384.113281 C 621.488281 326.53125 600.996094 273.863281 566.964844 232.691406 L 577.90625 221.84375 C 586.621094 213.128906 586.621094 199.035156 577.90625 190.410156 C 569.191406 181.789062 555.097656 181.695312 546.472656 190.410156 L 535.53125 201.257812 C 494.363281 167.230469 441.695312 146.738281 384.113281 146.738281 C 326.53125 146.738281 273.863281 167.230469 232.691406 201.257812 L 221.84375 190.316406 C 213.128906 181.601562 199.035156 181.601562 190.410156 190.316406 C 181.789062 199.035156 181.695312 213.128906 190.316406 221.84375 L 201.257812 232.691406 C 167.230469 273.863281 146.738281 326.53125 146.738281 384.113281 C 146.738281 441.695312 167.230469 494.363281 201.257812 535.53125 L 190.316406 546.378906 C 181.601562 555.097656 181.601562 569.191406 190.316406 577.8125 C 199.035156 586.4375 213.128906 586.53125 221.75 577.8125 L 232.691406 566.871094 C 273.863281 600.996094 326.53125 621.488281 384.113281 621.488281 C 441.695312 621.488281 494.363281 600.996094 535.53125 566.964844 L 546.378906 577.90625 C 555.097656 586.621094 569.191406 586.621094 577.8125 577.90625 C 586.4375 569.191406 586.53125 555.097656 577.8125 546.472656 L 566.871094 535.53125 Z M 535.347656 503.914062 L 460.796875 429.363281 C 468.585938 416.101562 473.128906 400.617188 473.128906 384.113281 C 473.128906 367.609375 468.675781 352.121094 460.796875 338.863281 L 535.347656 264.3125 C 561.402344 297.230469 576.980469 338.863281 576.980469 384.113281 C 576.980469 429.363281 561.402344 470.996094 535.347656 503.820312 Z M 503.820312 232.878906 L 429.269531 307.429688 C 416.011719 299.640625 400.523438 295.097656 384.019531 295.097656 C 367.515625 295.097656 352.03125 299.546875 338.769531 307.429688 L 264.40625 232.878906 C 297.230469 206.824219 338.863281 191.246094 384.113281 191.246094 C 429.363281 191.246094 470.996094 206.824219 503.820312 232.878906 Z M 307.429688 429.363281 L 232.878906 503.820312 C 206.824219 470.996094 191.246094 429.363281 191.246094 384.113281 C 191.246094 338.863281 206.824219 297.230469 232.878906 264.40625 L 307.429688 338.957031 C 299.640625 352.214844 295.097656 367.699219 295.097656 384.207031 C 295.097656 400.710938 299.546875 416.195312 307.429688 429.453125 Z M 339.605469 384.113281 C 339.605469 382.65625 339.675781 381.199219 339.820312 379.75 C 339.960938 378.300781 340.175781 376.859375 340.460938 375.429688 C 340.746094 374 341.097656 372.585938 341.519531 371.191406 C 341.945312 369.796875 342.433594 368.425781 342.992188 367.078125 C 343.550781 365.734375 344.171875 364.417969 344.859375 363.132812 C 345.546875 361.847656 346.296875 360.597656 347.105469 359.386719 C 347.914062 358.171875 348.78125 357.003906 349.707031 355.878906 C 350.632812 354.75 351.609375 353.671875 352.640625 352.640625 C 353.671875 351.609375 354.75 350.632812 355.878906 349.707031 C 357.003906 348.78125 358.171875 347.914062 359.386719 347.105469 C 360.597656 346.296875 361.847656 345.546875 363.132812 344.859375 C 364.417969 344.171875 365.734375 343.550781 367.078125 342.992188 C 368.425781 342.433594 369.796875 341.945312 371.191406 341.519531 C 372.585938 341.097656 374 340.746094 375.429688 340.460938 C 376.859375 340.175781 378.300781 339.960938 379.75 339.820312 C 381.199219 339.675781 382.65625 339.605469 384.113281 339.605469 C 385.570312 339.605469 387.023438 339.675781 388.476562 339.820312 C 389.925781 339.960938 391.367188 340.175781 392.796875 340.460938 C 394.226562 340.746094 395.636719 341.097656 397.03125 341.519531 C 398.425781 341.945312 399.796875 342.433594 401.144531 342.992188 C 402.492188 343.550781 403.808594 344.171875 405.09375 344.859375 C 406.378906 345.546875 407.628906 346.296875 408.839844 347.105469 C 410.050781 347.914062 411.222656 348.78125 412.347656 349.707031 C 413.476562 350.632812 414.554688 351.609375 415.585938 352.640625 C 416.613281 353.671875 417.59375 354.75 418.515625 355.878906 C 419.441406 357.003906 420.308594 358.171875 421.121094 359.386719 C 421.929688 360.597656 422.675781 361.847656 423.363281 363.132812 C 424.050781 364.417969 424.675781 365.734375 425.230469 367.078125 C 425.789062 368.425781 426.28125 369.796875 426.703125 371.191406 C 427.125 372.585938 427.480469 374 427.765625 375.429688 C 428.050781 376.859375 428.261719 378.300781 428.40625 379.75 C 428.550781 381.199219 428.621094 382.65625 428.621094 384.113281 C 428.621094 385.570312 428.550781 387.023438 428.40625 388.476562 C 428.261719 389.925781 428.050781 391.367188 427.765625 392.796875 C 427.480469 394.226562 427.125 395.636719 426.703125 397.03125 C 426.28125 398.425781 425.789062 399.796875 425.230469 401.144531 C 424.675781 402.492188 424.050781 403.808594 423.363281 405.09375 C 422.675781 406.378906 421.929688 407.628906 421.121094 408.839844 C 420.308594 410.050781 419.441406 411.222656 418.515625 412.347656 C 417.59375 413.476562 416.613281 414.554688 415.585938 415.585938 C 414.554688 416.613281 413.476562 417.59375 412.347656 418.515625 C 411.222656 419.441406 410.050781 420.308594 408.839844 421.121094 C 407.628906 421.929688 406.378906 422.675781 405.09375 423.363281 C 403.808594 424.050781 402.492188 424.675781 401.144531 425.230469 C 399.796875 425.789062 398.425781 426.28125 397.03125 426.703125 C 395.636719 427.128906 394.226562 427.480469 392.796875 427.765625 C 391.367188 428.050781 389.925781 428.261719 388.476562 428.40625 C 387.023438 428.550781 385.570312 428.621094 384.113281 428.621094 C 382.65625 428.621094 381.199219 428.550781 379.75 428.40625 C 378.300781 428.261719 376.859375 428.050781 375.429688 427.765625 C 374 427.480469 372.585938 427.128906 371.191406 426.703125 C 369.796875 426.28125 368.425781 425.789062 367.078125 425.230469 C 365.734375 424.675781 364.417969 424.050781 363.132812 423.363281 C 361.847656 422.675781 360.597656 421.929688 359.386719 421.121094 C 358.171875 420.308594 357.003906 419.441406 355.878906 418.515625 C 354.75 417.59375 353.671875 416.613281 352.640625 415.585938 C 351.609375 414.554688 350.632812 413.476562 349.707031 412.347656 C 348.78125 411.222656 347.914062 410.050781 347.105469 408.839844 C 346.296875 407.628906 345.546875 406.378906 344.859375 405.09375 C 344.171875 403.808594 343.550781 402.492188 342.992188 401.144531 C 342.433594 399.796875 341.945312 398.425781 341.519531 397.03125 C 341.097656 395.636719 340.746094 394.226562 340.460938 392.796875 C 340.175781 391.367188 339.960938 389.925781 339.820312 388.476562 C 339.675781 387.023438 339.605469 385.570312 339.605469 384.113281 Z M 339.605469 384.113281 " fill-opacity="1" fill-rule="nonzero"></path></g></svg></svg></g></g></svg></g></svg>